Patient4_TMGait_0pt4_02_right_35_EMG.mot
version=1
nRows=33
nColumns=33
inDegrees=no
endheader
time	1LAddLong	2LGlutMax	3LGlutMed	4LIliopsoas	5LSemiMemb	6LBicFemLong	7LRecFem	8LVastMed	9LVastLat	10LGasMed	11LTibAnt	12lTibPost	13LPeroneusLong	14LSol	15LExtDigLong	16LFlexDigLong	17RAddLong	18RGlutMax	19RGlutMed	20RIliopsoas	21RSemiMemb	22RBicFemLong	23RRecFem	24RVastMed	25RVastLat	26RGasMed	27RTibAnt	28RTibPost	29RPeroneusLong	30RSol	31RExtDigLong	32RFlexDigLong
47.565	0.003052	-0.10239	0.11887	0.004425	-0.039215	0.07843	0.010834	0.002441	-0.000305	-0.015259	0.21957	0.006256	0.11658	-0.016937	-0.31464	0.004272	-0.009766	-0.046539	-0.089722	0.027161	-0.006714	0.003967	0.082397	0.031891	0.022736	-0.00885	-0.19089	-0.000305	0.92545	0.044708	-0.001068	0
47.566	0.002747	-0.10162	0.1384	0.002136	0.040588	0.009766	0.021515	0.036163	0.000916	-0.064087	0.31113	0.00061	0.032196	0.053101	-0.23789	-0.000763	0.003357	-0.091553	-0.031128	0.021515	-0.045624	-0.002441	0.13123	0.020294	0.029297	-0.007019	0.11566	0.000458	0.47867	0.018921	-0.000916	-0.004272
47.567	0.005951	-0.10544	0.27252	0.031281	0.12848	-0.074921	-0.006104	0.030975	0.012512	-0.070496	0.29327	0.006714	0.001221	0.099335	0.63248	0.012512	0.014801	-0.10437	-0.052338	-0.026093	-0.066071	0.010071	0.04715	0.024261	-0.005951	-0.013428	0.26352	-0.003052	-0.5864	0.12131	-0.001678	0.001373
47.568	0.009766	-0.13931	0.15656	0.024109	0.10437	-0.070038	-0.056152	0.009766	-0.007019	-0.046997	-0.020294	0.005951	0.14358	0.12665	0.49362	0.018768	0.016327	-0.084686	0.015259	-0.033722	-0.039063	0.005646	-0.028229	0.001221	0.010376	-0.007629	0.10178	-0.005493	-0.74951	0.10376	-0.003357	0.003052
47.569	0.006866	-0.11826	0.1384	0.015259	0.050964	-0.039825	0.019073	-0.017548	-0.017395	-0.027771	-0.2034	0.002747	-0.20828	0.079651	-0.25726	0.018921	0.018463	-0.084686	0.11032	-0.027008	-0.019226	-0.00412	-0.037384	-0.039063	-0.000916	0.001831	-0.010529	-0.004578	-0.18188	-0.071259	-0.003052	0.003967
47.57	-0.000763	-0.15137	0.20523	0.003052	0.014496	-0.022736	0.023041	0.000305	-0.024719	-0.031128	-0.33554	0.008545	0.11261	-0.059662	-0.15976	0.01236	0.020294	-0.098724	0.045929	-0.010529	-0.02182	-0.016632	0.060425	-0.066071	0.004425	-0.008545	0.12299	-0.005493	0.074158	0.084686	-0.003967	0.001221
47.571	-0.001068	-0.1268	0.085144	0.008392	-0.029449	-0.05661	0.03006	0.000153	-0.015259	-0.014343	-0.42419	0.003204	0.90286	-0.098267	-0.27649	-0.00473	0.025787	-0.11887	-0.054321	-0.00824	-0.028076	-0.020752	0.067596	-0.04776	0.010223	-0.020905	0.022278	-0.006256	0.14862	0.19043	-0.001678	-0.00061
47.572	0.009918	-0.11749	0.039825	0.026245	-0.060272	-0.059357	-0.033264	0.009155	-0.021667	0.001984	-0.20218	-0.001221	0.45456	-0.16586	-0.16785	-0.004883	0.011749	-0.13718	-0.017853	0.015564	-0.000458	-0.013428	0.047607	-0.080719	0.011749	-0.011902	-0.35431	0.000458	0.17899	0.12894	-0.00412	0.004578
47.573	-0.000305	-0.09079	0.075989	0.032043	-0.049133	-0.071564	-0.041351	0.002899	0.014496	-0.10971	-0.072937	0.003967	0.64804	-0.041809	-0.014954	-0.007477	0.006256	-0.052338	-0.020905	-0.10239	-0.019379	-0.015259	0.039063	-0.048981	-0.000763	-0.007324	-0.057526	0.001984	0.032043	0.076141	-0.001526	0.001831
47.574	0.006104	-0.12451	0.032043	0.003815	0.077057	-0.046082	0.055389	-0.006561	0.037231	-0.24109	-0.072174	0.003052	0.29938	0.037079	0.05188	0.025787	0.014954	-0.056	0.072784	-0.18265	-0.010071	-0.006561	0.10956	-0.061798	-0.018463	-0.001984	0.15701	-0.001221	-0.022278	0.11643	-0.000458	0.003815
47.575	0.016785	-0.12558	0.054626	0.01709	0.13428	0.04303	0.06485	0.001831	0.028076	-0.19501	0.001984	0.005646	-0.21683	0.033112	-0.054169	0.004578	-0.006256	-0.086365	0.066376	-0.31906	-0.13153	0.024719	0.096588	-0.015717	0.022278	-0.000305	0.48798	0.000763	-0.074921	0.005493	-0.001221	0.002747
47.576	0.005493	-0.12192	0.019989	0.007782	0.11948	0.12039	0.034943	0.001984	-0.006714	-0.12009	0.023956	-0.000153	-0.522	0.002899	-0.060272	0.000305	0.000458	-0.099182	-0.070343	-0.20889	-0.10895	0.00946	0.026855	-0.001068	0.015411	0.001678	0.85205	-0.003357	-0.29037	-0.03891	-0.004272	-0.000458
47.577	0.000763	-0.071564	-0.032806	0.015869	0.088196	0.10651	0.009003	-0.004425	-0.005341	-0.058594	-0.007324	0.004272	-0.26321	0.02243	0.066833	0.012207	-0.014801	-0.082703	-0.10346	0.15991	0.016785	0.019531	-0.006104	-0.008392	0.018005	-0.005341	0.76874	-0.00351	-0.21149	0.009308	-0.00412	-0.00061
47.578	0.012512	-0.080566	-0.087738	0.013733	-0.036926	0.026245	-0.001984	0.006256	0.013885	-0.066681	-0.045471	0.000305	-0.011902	-0.012817	0.098267	0.029144	-0.010376	-0.043945	-0.13138	0.30106	0.010986	0.01358	-0.055847	-0.027161	0.023193	0.00061	0.090637	-0.003357	0.42374	0.049744	-0.002899	-0.001526
47.579	-0.00351	-0.092316	-0.073853	-0.005798	-0.12054	-0.054932	0.00412	0.004883	-0.006409	-0.020599	-0.004272	0.000916	-0.023804	-0.095825	0.075531	0.014191	-0.01297	-0.092773	-0.18921	0.26916	-0.010376	0.008392	-0.096588	-0.05127	-0.000305	0.003204	-0.60867	-0.001221	0.53818	0.11429	-0.003967	0.000458
47.58	0.017548	-0.057526	0.17166	0.006561	-0.067291	-0.079803	-0.034637	0.013733	-0.006714	0.020599	0.035095	-0.004883	-0.27191	0.043488	0.019226	0.020752	-0.001984	-0.11002	0.021057	0.09903	-0.023193	-0.003967	-0.077209	-0.058899	0.005493	0	-0.45532	-0.000916	0.13825	0.10132	-0.003967	0.003967
47.581	0.01709	-0.11078	-0.070496	0.00824	0.036316	-0.075226	-0.009308	-0.001984	-0.004883	0.059357	0.007172	0.001068	0.004272	0.009766	-0.025787	0.015411	-0.007935	-0.13702	0.31815	0.14877	-0.046387	0.007782	0.01236	-0.027313	0.020905	0.003052	-0.23834	-0.002136	-0.13382	0.081635	-0.001221	-0.001221
47.582	0.001221	-0.10254	0.012817	0.021667	0.044403	0.018616	0.058441	-0.00473	-0.033569	0.11047	0.008392	0.006714	-0.11307	-0.059662	-0.001068	-0.003357	0.006409	-0.14313	0.093536	0.17059	-0.053711	0.024109	0.065613	-0.049133	0.022125	0.005646	0.023956	-0.001678	-0.23911	0.058136	-0.002899	0.001068
47.583	0.011292	-0.06485	0.009613	0.024109	-0.018616	0.021973	0.029907	0.003967	-0.037384	0.15198	0.001221	0.005341	-0.037689	-0.065155	0.026398	0.010071	0.002899	-0.055237	0.17578	0.13443	-0.066986	0.003815	0.075684	-0.052185	0.029297	0.005646	0.049133	-0.000916	-0.25787	0.048523	-0.004425	0.00885
47.584	-0.005188	-0.074615	0.21347	0.027313	0.039368	-0.013123	-0.002899	0.002594	-0.029602	0.20065	0.019531	-0.006256	-0.055695	-0.33951	0.02182	0.00061	0.019531	-0.10468	0.33661	0.052795	-0.0737	-0.019226	0.073853	-0.082703	0.031433	0.006561	0.030975	0.001221	-0.27649	0.019684	0.002747	0.001678
47.585	-0.000305	-0.05127	0.37354	0.039825	0.075684	-0.005493	0.059814	0.002594	0.004425	0.24139	0.019226	0.004272	-0.050049	-0.45685	0.036926	-0.011902	0.008392	-0.11017	0.26581	0.006104	-0.053406	-0.003357	0.038452	-0.071716	0.038147	0.007172	0.11826	0	-0.33295	-0.022125	-0.001221	0.001984
47.586	-0.011902	-0.13016	0.21713	0.039063	0.041199	0.019989	0.14221	0.006714	-0.033417	0.24445	0.020752	-0.00412	-0.043488	-0.17487	0.035553	-0.00351	0.006714	-0.1387	0.017853	-0.030975	0.067902	-0.029907	-0.023651	-0.044556	0.043945	0.007019	0.14404	-0.001831	-0.38376	-0.036621	-0.00351	0.001221
47.587	-0.014496	-0.10529	0.087433	0.014648	0.029449	-0.007629	0.14481	0	-0.069733	0.24048	0.021667	0.006561	-0.063934	-0.024414	0.002289	-0.01236	0.013885	-0.14862	0.081329	-0.028992	0.081177	-0.035706	-0.040131	-0.070343	0.014496	0.002747	-0.048065	0.001984	-0.22888	-0.006256	-0.003967	0.001831
47.588	-0.009766	-0.09552	0.14328	-0.005493	-0.001984	0.010681	0.12589	0.005951	-0.10284	0.10193	0.030212	0.002594	-0.053406	0.078125	-0.007935	-0.005646	0.009918	-0.14542	0.23331	-0.051117	0.069885	-0.020599	-0.14328	-0.072021	0.000305	0.007629	-0.33341	0.001984	0.49255	-0.030518	-0.004883	0.011444
47.589	0.006866	-0.12375	0.18402	-0.011597	0.054169	-0.027313	-0.014801	0.019989	-0.083008	-0.10239	0.040436	-0.000153	-0.067139	0.14145	-0.009003	0.011597	-0.014343	-0.096436	0.39841	-0.033875	0.10819	0.008392	-0.12436	-0.037231	0.029297	0.008087	-0.13763	0.005493	0.1918	-0.051422	-0.000916	0.008545
47.59	0.000458	-0.061951	0.11047	0.015106	0.052032	-0.020447	-0.14038	0.025482	0.036316	-0.090637	0.031586	0.000458	-0.021362	0.14603	0.00885	0.027161	0.005493	-0.088196	0.4277	-0.062561	-0.037231	0.045166	-0.035553	-0.014496	0.024414	0.008087	0.082245	0	-0.073395	-0.077209	-0.006561	0.009155
47.591	0.007019	-0.069733	-0.010223	0.009003	0.030518	-0.049438	-0.21774	-0.016022	0.19318	0.00946	0.024261	0.002747	0.009155	0.08194	0.019073	0.009155	0.014191	-0.14343	0.21103	-0.031891	-0.081787	0.045319	-0.023499	-0.040741	0.013733	0.007782	0.083008	0.001526	0.10437	-0.089874	-0.003052	-0.002747
47.592	0.009613	-0.022736	0.046997	0.004883	0.011292	-0.025177	-0.10757	-0.01297	0.11795	-0.035095	0.016022	0.005188	0.055084	0.033569	0.024109	0.006866	0.008392	-0.13641	-0.086517	-0.021362	-0.11429	0.002594	-0.009613	-0.023499	0.01358	0.00885	-0.093994	0.001526	0.20111	-0.12711	-0.001984	0.002136
47.593	0.006714	-0.038605	0.017242	-0.003052	0.012817	-0.018616	-0.001068	-0.021515	0.069733	-0.077362	0.01709	0.004272	0.015259	-0.10437	-0.002747	0.019989	-0.007324	-0.11002	-0.17609	-0.03006	-0.063019	-0.014343	0.001221	-0.035858	0.00885	0.020294	0.031433	-0.000763	0.057373	-0.12894	-0.00473	-0.000458
47.594	0.00885	-0.070496	-0.044861	0.002136	-0.001678	-0.031281	0.005798	-0.011902	0.014801	-0.069885	0.027161	0.007782	-0.005035	-0.12116	-0.00885	-0.014038	-0.03006	-0.068054	-0.13886	-0.036926	-0.013885	-0.009003	-0.00351	-0.076904	0.01358	0.003357	0.13702	-0.000153	-0.11627	-0.048523	0.001373	0.005646
47.595	-0.004578	-0.04303	-0.00412	0.008087	0.016174	-0.014191	0.034943	-0.011597	0.003662	-0.066681	0.026703	0.011444	0.029297	0.053101	0.000305	-0.016327	-0.007629	-0.068817	-0.022583	-0.032043	0.055084	-0.005188	-0.031433	-0.071564	0.004883	0.001373	0.21057	-0.000763	-0.2478	0.050201	-0.003967	0.001831
47.596	-0.00946	-0.013428	0.065002	-0.000763	0.032501	0.00885	0.026703	-0.006866	0.017853	-0.039825	0.018311	0.012207	0.032043	0.14008	0.01236	-0.016327	-0.009766	-0.060883	-0.15686	0.000153	0.020599	0.020752	-0.052185	-0.054321	0.021362	0.004883	0.15701	-0.000458	-0.25101	0.030212	0.010681	-0.001984
47.597	-0.006714	-0.033722	0.002594	0.014496	0.006409	0.009918	0.009613	-0.007782	-0.012207	-0.027161	0.01297	0.012207	0.039215	0.17731	0.013885	-0.003662	0.012512	-0.14297	-0.27847	-0.000153	-0.034332	-0.011292	-0.05661	-0.061493	0.020599	0.003052	0.020599	-0.000458	-0.077362	-0.010223	-0.001831	-0.000763
